<?xml version="1.0" encoding="UTF-8"?>
<!DOCTYPE svg PUBLIC "-//W3C//DTD SVG 1.1//EN" "http://www.w3.org/Graphics/SVG/1.1/DTD/svg11.dtd">
<svg xmlns="http://www.w3.org/2000/svg" version="1.1" width="96px" height="96px" style="shape-rendering:geometricPrecision; text-rendering:geometricPrecision; image-rendering:optimizeQuality; fill-rule:evenodd; clip-rule:evenodd" xmlns:xlink="http://www.w3.org/1999/xlink">
<g><path style="opacity:0.856" fill="#000000" d="M 40.5,14.5 C 60.9814,12.8142 70.1481,22.1475 68,42.5C 66.6043,46.7924 64.1043,50.2924 60.5,53C 71.8752,58.5746 77.5419,67.7413 77.5,80.5C 75.1667,80.5 72.8333,80.5 70.5,80.5C 70.2572,69.9238 65.2572,62.5905 55.5,58.5C 53.0163,60.483 50.6829,62.6496 48.5,65C 50.4591,69.71 52.1258,74.5433 53.5,79.5C 50.6614,87.5361 46.828,88.2028 42,81.5C 42.4609,75.7743 43.9609,70.2743 46.5,65C 44.3171,62.6496 41.9837,60.483 39.5,58.5C 29.7428,62.5905 24.7428,69.9238 24.5,80.5C 22.1667,80.5 19.8333,80.5 17.5,80.5C 17.4581,67.7413 23.1248,58.5746 34.5,53C 25.6263,44.0024 24.1263,33.8357 30,22.5C 32.94,18.9632 36.44,16.2965 40.5,14.5 Z M 42.5,21.5 C 59.2861,21.0726 64.7861,28.7392 59,44.5C 52.8025,50.1041 45.9692,50.9374 38.5,47C 32.8959,40.8025 32.0626,33.9692 36,26.5C 37.9651,24.4497 40.1318,22.783 42.5,21.5 Z"/></g>
<g><path style="opacity:0.846" fill="#000000" d="M 19.5,23.5 C 20.8333,23.5 22.1667,23.5 23.5,23.5C 23.8076,25.924 23.4742,28.2573 22.5,30.5C 15.6443,33.634 13.811,38.634 17,45.5C 18.4133,47.4136 20.2466,48.7469 22.5,49.5C 23.8333,52.1667 23.8333,54.8333 22.5,57.5C 14.0597,60.0549 9.72635,65.7216 9.5,74.5C 7.16667,74.5 4.83333,74.5 2.5,74.5C 2.42017,65.0745 6.42017,57.9079 14.5,53C 12.094,51.378 10.2606,49.2114 9,46.5C 6.26862,35.8216 9.76862,28.155 19.5,23.5 Z"/></g>
<g><path style="opacity:0.842" fill="#000000" d="M 71.5,23.5 C 84.1387,26.0118 88.9721,33.6785 86,46.5C 84.7394,49.2114 82.906,51.378 80.5,53C 88.5798,57.9079 92.5798,65.0745 92.5,74.5C 90.1667,74.5 87.8333,74.5 85.5,74.5C 85.2737,65.7216 80.9403,60.0549 72.5,57.5C 71.1667,54.8333 71.1667,52.1667 72.5,49.5C 79.3557,46.366 81.189,41.366 78,34.5C 76.5867,32.5864 74.7534,31.2531 72.5,30.5C 71.5258,28.2573 71.1924,25.924 71.5,23.5 Z"/></g>
</svg>
