<?xml version="1.0" encoding="UTF-8" standalone="no"?>
<svg>
  <g
     id="1"
     transform="translate(1.6988417,10.810811)">
    <path
       d="M 17.52,90.42 H 38 v -7 H 17.52 A 1.51,1.51 0 0 1 16,81.92 V 38.54 h 50.87 v 2.4 h 7 V 14.08 A 8.51,8.51 0 0 0 65.36,5.58 H 17.52 A 8.51,8.51 0 0 0 9,14.08 v 67.84 a 8.51,8.51 0 0 0 8.52,8.5 z m 0,-77.84 h 47.84 a 1.51,1.51 0 0 1 1.51,1.5 V 31.54 H 16 V 14.08 a 1.51,1.51 0 0 1 1.52,-1.5 z M 38,57.25 H 28 v -7 h 10 z m -10,9.91 h 10 v 7 H 28 Z m 15.77,1.63 A 21.64,21.64 0 1 0 65.36,47.16 21.66,21.66 0 0 0 43.72,68.79 Z m 36.27,0 A 14.64,14.64 0 1 1 65.36,54.16 14.65,14.65 0 0 1 80,68.79 Z"
       id="1" />
  </g>
</svg>
