<svg xmlns="http://www.w3.org/2000/svg" version="1.1" viewBox="-5.0 -10.0 110.0 135.0">
 <path d="m15.5 79.172c0 1.5547 1.2578 2.8125 2.8125 2.8125h57.125c1.5547 0 2.8125-1.2578 2.8125-2.8125 0-12.598-7.3828-23.66-18.504-28.625 3.7266-3.4922 5.9766-8.4141 5.9766-13.688 0-10.391-8.4531-18.844-18.844-18.844s-18.844 8.4531-18.844 18.844c0 5.2734 2.25 10.195 5.9727 13.688-11.129 4.9648-18.508 16.027-18.508 28.625zm31.348-3.3555-6.3516-4.0625 3.0234-16.406c1.1016 0.19922 2.2188 0.32422 3.3555 0.32422 1.1172 0 2.2188-0.12109 3.3047-0.31641l3.0156 16.398zm25.625 0.54297h-16.035l1.3828-0.88672c0.96094-0.61719 1.457-1.7578 1.2461-2.8789l-3.2266-17.52c9.1367 3.3711 15.586 11.559 16.633 21.285zm-38.812-39.5c0-7.2891 5.9297-13.219 13.215-13.219 7.2891 0 13.215 5.9297 13.215 13.219 0 5.1484-3.0195 9.8477-7.7109 11.977-3.4727 1.6055-7.5195 1.6133-11.027-0.007813-4.6758-2.1211-7.6914-6.8203-7.6914-11.969zm4.1875 18.234-3.2266 17.5c-0.20703 1.125 0.28906 2.2617 1.2461 2.8789l1.3867 0.88672h-15.977c1.043-9.707 7.4688-17.883 16.57-21.266z"/>
<text x="0.0" y="117.5" font-size="5.0" font-weight="bold" font-family="Arbeit Regular, Helvetica, Arial-Unicode, Arial, Sans-serif" fill="#000000">Created by wiran toni</text><text x="0.0" y="122.5" font-size="5.0" font-weight="bold" font-family="Arbeit Regular, Helvetica, Arial-Unicode, Arial, Sans-serif" fill="#000000">from Noun Project</text></svg>