<svg xmlns="http://www.w3.org/2000/svg" xmlns:xlink="http://www.w3.org/1999/xlink" xmlns:serif="http://www.serif.com/" viewBox="0 0 32 40" version="1.1" xml:space="preserve" style="" x="0px" y="0px" fill-rule="evenodd" clip-rule="evenodd" stroke-linejoin="round" stroke-miterlimit="2"><g transform="matrix(1,0,0,1,-222,-148)"><path d="M224,151L224,177C224,177.552 224.448,178 225,178L251,178C251.552,178 252,177.552 252,177C252,176.448 251.552,176 251,176L226,176C226,176 226,151 226,151C226,150.448 225.552,150 225,150C224.448,150 224,150.448 224,151ZM246.586,155L244.293,157.293C244.14,157.446 244.041,157.644 244.01,157.859L243.16,163.812C243.16,163.812 239.196,163.019 239.196,163.019C238.782,162.937 238.36,163.123 238.143,163.486L235.657,167.628C235.657,167.628 231.514,165.143 231.514,165.143C231.26,164.99 230.951,164.958 230.67,165.056C230.39,165.154 230.168,165.371 230.064,165.649L227.064,173.649C226.87,174.166 227.132,174.743 227.649,174.936C228.166,175.13 228.743,174.868 228.936,174.351L231.515,167.475C231.515,167.475 235.486,169.857 235.486,169.857C235.959,170.142 236.573,169.988 236.857,169.514L239.495,165.119C239.495,165.119 243.804,165.981 243.804,165.981C244.073,166.034 244.353,165.975 244.578,165.816C244.802,165.658 244.951,165.414 244.99,165.141L245.943,158.471L248,156.414L248,158C248,158.552 248.448,159 249,159C249.552,159 250,158.552 250,158L250,154C250,153.829 249.957,153.669 249.882,153.528C249.846,153.461 249.801,153.396 249.748,153.337L249.73,153.316L249.716,153.302L249.698,153.284L249.679,153.266L249.663,153.252C249.604,153.199 249.539,153.154 249.472,153.118C249.331,153.043 249.171,153 249,153L245,153C244.448,153 244,153.448 244,154C244,154.552 244.448,155 245,155L246.586,155Z"/></g><text x="0" y="47" fill="#000000" font-size="5px" font-weight="bold" font-family="'Helvetica Neue', Helvetica, Arial-Unicode, Arial, Sans-serif">Created by Utari Nuraeni</text><text x="0" y="52" fill="#000000" font-size="5px" font-weight="bold" font-family="'Helvetica Neue', Helvetica, Arial-Unicode, Arial, Sans-serif">from the Noun Project</text></svg>