<svg xmlns="http://www.w3.org/2000/svg" viewBox="0 0 128 160" x="0px" y="0px"><g data-name="Solid Line"><g data-name="Solid Line"><path d="M107,65.95V13.5A13.52,13.52,0,0,0,93.5,0h-80A13.52,13.52,0,0,0,0,13.5v78A13.52,13.52,0,0,0,13.5,105H65.3A32,32,0,1,0,107,65.95ZM64.57,102H13.5A10.512,10.512,0,0,1,3,91.5v-78A10.512,10.512,0,0,1,13.5,3H36V28.15a4.5,4.5,0,0,0,7.22,3.59l9.37-7.12a1.53,1.53,0,0,1,1.82,0l9.37,7.12A4.5,4.5,0,0,0,71,28.15V3H93.5A10.512,10.512,0,0,1,104,13.5V65.01A32,32,0,0,0,64.57,102ZM96,125a29,29,0,1,1,29-29A29.034,29.034,0,0,1,96,125Z"/><path d="M96,72.5A23.5,23.5,0,1,0,119.5,96,23.524,23.524,0,0,0,96,72.5ZM95.08,95h1.84a5.5,5.5,0,0,1,.58,10.97v1.53a1.5,1.5,0,0,1-3,0V106a4.849,4.849,0,0,1-5-4.84,1.5,1.5,0,0,1,3,0A1.833,1.833,0,0,0,94.33,103h2.59a2.5,2.5,0,1,0,0-5H95.08a5.5,5.5,0,0,1-.58-10.97V85.5a1.5,1.5,0,0,1,3,0V87a4.849,4.849,0,0,1,5,4.84,1.5,1.5,0,0,1-3,0A1.833,1.833,0,0,0,97.67,90H95.08a2.5,2.5,0,1,0,0,5Z"/><rect x="13" y="76" width="27" height="15" rx="4.5"/></g></g><text x="0" y="143" fill="#000000" font-size="5px" font-weight="bold" font-family="'Helvetica Neue', Helvetica, Arial-Unicode, Arial, Sans-serif">Created by Flowicon</text><text x="0" y="148" fill="#000000" font-size="5px" font-weight="bold" font-family="'Helvetica Neue', Helvetica, Arial-Unicode, Arial, Sans-serif">from the Noun Project</text></svg>