<svg xmlns="http://www.w3.org/2000/svg" viewBox="0 0 64 80" fill="none" x="0px" y="0px"><path fill-rule="evenodd" clip-rule="evenodd" d="M11 20C11 15.8313 14.1886 12.4073 18.2599 12.0338L18.74 13.68C19.4867 16.24 21.8334 18 24.5 18H39.5C42.1667 18 44.5134 16.24 45.26 13.68L45.7402 12.0338C49.8115 12.4073 53 15.8313 53 20V32.5C53 33.6046 53.8954 34.5 55 34.5C56.1046 34.5 57 33.6046 57 32.5V20C57 13.939 52.5065 8.92747 46.6691 8.11515C46.7384 4.86198 44.1199 2 40.6667 2H23.3334C19.8801 2 17.2616 4.86197 17.3309 8.11515C11.4935 8.92745 7 13.939 7 20V50C7 56.6274 12.3726 62 19 62H37C38.1046 62 39 61.1046 39 60C39 58.8954 38.1046 58 37 58H19C14.5817 58 11 54.4183 11 50V20ZM23.3334 6C22 6 21.04 7.28 21.4134 8.56L22.58 12.56C22.8289 13.4133 23.6111 14 24.5 14H39.5C40.3889 14 41.1711 13.4133 41.42 12.56L42.5867 8.56C42.96 7.28 42 6 40.6667 6H23.3334Z" fill="black"/><path d="M20 26C18.8954 26 18 26.8954 18 28C18 29.1046 18.8954 30 20 30H44C45.1046 30 46 29.1046 46 28C46 26.8954 45.1046 26 44 26H20Z" fill="black"/><path d="M20 36C18.8954 36 18 36.8954 18 38C18 39.1046 18.8954 40 20 40H31.5C32.6046 40 33.5 39.1046 33.5 38C33.5 36.8954 32.6046 36 31.5 36H20Z" fill="black"/><path d="M20 46C18.8954 46 18 46.8954 18 48C18 49.1046 18.8954 50 20 50H31.5C32.6046 50 33.5 49.1046 33.5 48C33.5 46.8954 32.6046 46 31.5 46H20Z" fill="black"/><path d="M51 38C51 36.8954 50.1046 36 49 36C47.8954 36 47 36.8954 47 38V38.5968C43.7075 38.7658 41 41.4239 41 44.7941C41 48.2774 43.8922 51 47.3333 51H50.6667C52.012 51 53 52.0435 53 53.2059C53 54.3683 52.012 55.4118 50.6667 55.4118H43C41.8954 55.4118 41 56.3072 41 57.4118C41 58.5163 41.8954 59.4118 43 59.4118H47V60C47 61.1046 47.8954 62 49 62C50.1046 62 51 61.1046 51 60V59.4032C54.2925 59.2342 57 56.5761 57 53.2059C57 49.7226 54.1078 47 50.6667 47H47.3333C45.988 47 45 45.9565 45 44.7941C45 43.6317 45.988 42.5882 47.3333 42.5882H55C56.1046 42.5882 57 41.6928 57 40.5882C57 39.4837 56.1046 38.5882 55 38.5882H51V38Z" fill="black"/><text x="0" y="79" fill="#000000" font-size="5px" font-weight="bold" font-family="'Helvetica Neue', Helvetica, Arial-Unicode, Arial, Sans-serif">Created by Heztasia</text><text x="0" y="84" fill="#000000" font-size="5px" font-weight="bold" font-family="'Helvetica Neue', Helvetica, Arial-Unicode, Arial, Sans-serif">from the Noun Project</text></svg>