<svg xmlns="http://www.w3.org/2000/svg" xmlns:xlink="http://www.w3.org/1999/xlink" version="1.1" x="0px" y="0px" viewBox="0 0 32 40" style="enable-background:new 0 0 32 32;" xml:space="preserve"><path d="M4,29c0.55,0,1-0.45,1-1c0-3.86,3.14-7,7-7h9c0.55,0,1-0.45,1-1s-0.45-1-1-1h-9c-4.96,0-9,4.04-9,9C3,28.55,3.45,29,4,29z"/><path d="M16,17c3.86,0,7-3.14,7-7s-3.14-7-7-7s-7,3.14-7,7S12.14,17,16,17z M16,5c2.76,0,5,2.24,5,5s-2.24,5-5,5s-5-2.24-5-5  S13.24,5,16,5z"/><path d="M28,24h-2v-2c0-0.55-0.45-1-1-1s-1,0.45-1,1v2h-2c-0.55,0-1,0.45-1,1s0.45,1,1,1h2v2c0,0.55,0.45,1,1,1s1-0.45,1-1v-2h2  c0.55,0,1-0.45,1-1S28.55,24,28,24z"/><text x="0" y="47" fill="#000000" font-size="5px" font-weight="bold" font-family="'Helvetica Neue', Helvetica, Arial-Unicode, Arial, Sans-serif">Created by Dewanata Visuals</text><text x="0" y="52" fill="#000000" font-size="5px" font-weight="bold" font-family="'Helvetica Neue', Helvetica, Arial-Unicode, Arial, Sans-serif">from the Noun Project</text></svg>